<?xml version="1.0" encoding="utf-8"?>
<!-- Uploaded to: SVG Repo, www.svgrepo.com, Generator: SVG Repo Mixer Tools -->
<svg fill="#000000" width="800px" height="800px" viewBox="0 0 32 32" version="1.1" xmlns="http://www.w3.org/2000/svg">
<title>bullseye-arrow</title>
<path d="M29.207 11.281c-0.313 0.094-0.537 0.38-0.537 0.718 0 0.077 0.012 0.15 0.033 0.22l-0.001-0.005c0.349 1.13 0.549 2.428 0.549 3.774 0 7.311-5.927 13.237-13.237 13.237s-13.237-5.927-13.237-13.237c0-7.311 5.927-13.237 13.237-13.237 1.345 0 2.643 0.201 3.866 0.573l-0.094-0.025c0.063 0.019 0.136 0.030 0.212 0.030 0.414 0 0.75-0.336 0.75-0.75 0-0.336-0.222-0.621-0.527-0.716l-0.005-0.001c-1.258-0.388-2.704-0.612-4.202-0.612-8.139 0-14.737 6.598-14.737 14.737s6.598 14.737 14.737 14.737c8.139 0 14.737-6.598 14.737-14.737 0-1.498-0.223-2.943-0.639-4.305l0.027 0.104c-0.096-0.312-0.382-0.535-0.72-0.535-0.076 0-0.148 0.011-0.217 0.032l0.005-0.001zM16 7.75c0.001 0 0.002 0 0.003 0 0.649 0 1.281 0.074 1.888 0.215l-0.056-0.011c0.053 0.013 0.113 0.021 0.175 0.021 0.414 0 0.75-0.336 0.75-0.75 0-0.359-0.252-0.659-0.589-0.733l-0.005-0.001c-0.649-0.154-1.394-0.242-2.16-0.242-5.382 0-9.744 4.363-9.744 9.744s4.363 9.744 9.744 9.744c5.382 0 9.744-4.363 9.744-9.744 0-0.765-0.088-1.51-0.255-2.225l0.013 0.066c-0.077-0.338-0.375-0.586-0.731-0.586-0.414 0-0.749 0.335-0.749 0.749 0 0.060 0.007 0.118 0.020 0.174l-0.001-0.005c0.131 0.552 0.207 1.185 0.207 1.836 0 4.557-3.694 8.252-8.252 8.252s-8.252-3.694-8.252-8.252c0-4.557 3.693-8.251 8.25-8.252h0zM15.47 15.47c-0.14 0.136-0.227 0.327-0.227 0.538 0 0.414 0.336 0.75 0.75 0.75 0.211 0 0.401-0.087 0.537-0.227l5.781-5.78h4.689c0.414 0 0.75-0.336 0.75-0.75s-0.336-0.75-0.75-0.75v0h-3.189l1.5-1.5h4.689c0.414 0 0.75-0.336 0.75-0.75s-0.336-0.75-0.75-0.75v0h-3.189l2.72-2.72c0.134-0.136 0.218-0.322 0.218-0.528 0-0.415-0.336-0.751-0.751-0.751-0.207 0-0.394 0.083-0.529 0.219l-2.719 2.719v-3.189c0-0.414-0.336-0.75-0.75-0.75s-0.75 0.336-0.75 0.75v0 4.689l-1.5 1.5v-3.189c0-0.414-0.336-0.75-0.75-0.75s-0.75 0.336-0.75 0.75v0 4.689z"></path>
</svg>