<?xml version="1.0" encoding="UTF-8"?>
<svg id="Capa_1" data-name="Capa 1" xmlns="http://www.w3.org/2000/svg" viewBox="0 0 320.99 207.66">
  <defs>
    <style>
      .cls-1 {
        fill: #1d1d1b;
        stroke-width: 0px;
      }
    </style>
  </defs>
  <path class="cls-1" d="M247.12,64.42c17.76,0,32.21-14.45,32.21-32.21S264.88,0,247.12,0s-32.21,14.45-32.21,32.21,14.45,32.21,32.21,32.21ZM247.12,11c11.7,0,21.21,9.52,21.21,21.21s-9.52,21.21-21.21,21.21-21.21-9.52-21.21-21.21,9.52-21.21,21.21-21.21Z"/>
  <path class="cls-1" d="M53.44,96.41c-3.04,0-5.5,2.46-5.5,5.5v53.42c0,3.04,2.46,5.5,5.5,5.5s5.5-2.46,5.5-5.5v-53.42c0-3.04-2.46-5.5-5.5-5.5Z"/>
  <path class="cls-1" d="M319.8,179.72l-20.55-20.55c1.22-5.62,6.22-9.85,12.21-9.85,3.04,0,5.5-2.46,5.5-5.5v-30.4c0-3.04-2.46-5.5-5.5-5.5-6.89,0-12.49-5.6-12.49-12.49,0-3.04-2.46-5.5-5.5-5.5h-28.34c-3.04,0-5.5,2.46-5.5,5.5,0,6.24-4.61,11.42-10.6,12.33-.47-.17-.97-.28-1.49-.32L157.65,17.57c-6.8-6.8-15.84-10.54-25.45-10.54s-18.65,3.74-25.45,10.54l-35.89,35.89c-9.31-4.18-19.83-5.01-29.69-2.33-14.77,4.02-28.51,16.29-35,31.27C0,96.63,0,111.6,0,127.44v2.36c0,15.85,0,30.81,6.16,45.05,6.49,14.98,20.23,27.25,35,31.27,3.8,1.03,7.69,1.54,11.58,1.54,6.31,0,12.59-1.35,18.39-4,3.44-1.57,6.55-3.53,9.57-5.42,3.94-2.48,7.67-4.82,11.63-6,7.89-2.35,17.02-.11,25.85,2.06.89.22,1.78.44,2.66.65,8.93,2.15,25.83,4.42,38.72-4.5.63-.43,1.23-.88,1.81-1.34h154.53c2.22,0,4.23-1.34,5.08-3.4.85-2.06.38-4.42-1.19-5.99ZM269.97,100.93h18.64c2.06,8.54,8.8,15.29,17.34,17.34v20.7c-8.54,2.06-15.29,8.8-17.34,17.34h-18.64c-2.06-8.54-8.8-15.29-17.34-17.34v-20.7c8.54-2.06,15.29-8.8,17.34-17.34ZM133.88,138.82c1.07-3.21,1.67-6.64,1.67-10.2s-.59-6.99-1.67-10.2h107.74v20.4h-107.74ZM124.54,128.62c0,11.7-9.52,21.21-21.21,21.21s-21.21-9.52-21.21-21.21,9.51-21.21,21.21-21.21,21.21,9.52,21.21,21.21ZM114.52,25.35c4.72-4.72,11-7.32,17.67-7.32s12.95,2.6,17.68,7.32l82.07,82.07h-54.03c-.4-11.17-2.9-29.94-18.34-40.62-12.9-8.92-29.8-6.65-38.72-4.5-.89.21-1.78.43-2.67.65-8.83,2.17-17.95,4.4-25.85,2.06-3.93-1.17-7.63-3.48-11.53-5.93l33.72-33.72ZM123.42,184.25c-.87-.21-1.74-.42-2.62-.64-9.78-2.4-20.86-5.11-31.61-1.92-5.4,1.61-9.95,4.46-14.35,7.22-2.84,1.78-5.52,3.46-8.29,4.74-6.94,3.18-15.14,3.85-22.51,1.85-13.27-3.61-23.52-15.17-27.79-25.03-5.26-12.15-5.26-25.37-5.26-40.67v-2.36c0-15.31,0-28.53,5.26-40.67,4.27-9.86,14.52-21.42,27.79-25.03,7.37-2,15.57-1.33,22.51,1.84,2.78,1.27,5.46,2.95,8.29,4.74,4.4,2.76,8.95,5.62,14.35,7.22,10.75,3.2,21.83.48,31.6-1.92.88-.21,1.75-.43,2.62-.64,5.75-1.38,20.16-3.87,29.89,2.85,10.44,7.22,13.04,19.96,13.56,31.58h-39.33c-5.91-6.74-14.57-11.01-24.22-11.01-17.76,0-32.21,14.45-32.21,32.21s14.45,32.21,32.21,32.21c9.65,0,18.31-4.27,24.22-11.01h39.33c-.52,11.61-3.12,24.36-13.56,31.58-9.73,6.73-24.15,4.24-29.89,2.85ZM170.83,178.11c5.57-9.67,6.81-20.72,7.08-28.29h69.21c.67,0,1.3-.12,1.89-.34,5.99.92,10.6,6.09,10.6,12.33,0,3.04,2.46,5.5,5.5,5.5h26.72l10.79,10.79h-131.8Z"/>
</svg>