<?xml version="1.0" encoding="UTF-8"?>
<svg id="Capa_1" data-name="Capa 1" xmlns="http://www.w3.org/2000/svg" viewBox="0 0 288.97 218.57">
  <defs>
    <style>
      .cls-1 {
        fill: #1d1d1b;
        stroke-width: 0px;
      }
    </style>
  </defs>
  <path class="cls-1" d="M267.24,86.79c5.18-6.81,8.26-15.29,8.26-24.48,0-22.34-18.18-40.52-40.52-40.52s-40.52,18.18-40.52,40.52c0,9.19,3.08,17.68,8.26,24.49-2.43,1.82-4.72,3.84-6.82,6.04-4.11-6.78-9.55-12.75-16.08-17.51,6.03-7.66,9.63-17.31,9.63-27.8,0-24.85-20.22-45.07-45.07-45.07s-45.07,20.22-45.07,45.07c0,10.48,3.61,20.13,9.63,27.8-6.49,4.73-11.91,10.66-16.01,17.38-2.07-2.15-4.32-4.13-6.7-5.92,5.18-6.81,8.26-15.29,8.26-24.49,0-22.34-18.18-40.52-40.52-40.52S13.48,39.97,13.48,62.32c0,9.19,3.08,17.67,8.26,24.48C8.19,96.91,0,112.95,0,130.08v45.91c0,2.16,1.26,4.12,3.23,5.01.95.43,23.35,10.3,80.87,10.9v19.93c0,3.04,2.46,5.5,5.5,5.5h109.59c3.04,0,5.5-2.46,5.5-5.5v-19.98c34.44-.94,77.99-10.07,79.92-10.48,2.54-.54,4.36-2.78,4.36-5.38v-45.91c0-17.13-8.19-33.17-21.73-43.29ZM234.98,32.8c16.28,0,29.52,13.24,29.52,29.52s-13.24,29.52-29.52,29.52-29.52-13.24-29.52-29.52,13.24-29.52,29.52-29.52ZM144.39,13.47c18.79,0,34.07,15.28,34.07,34.07s-15.28,34.07-34.07,34.07-34.07-15.28-34.07-34.07,15.28-34.07,34.07-34.07ZM53.99,32.8c16.28,0,29.52,13.24,29.52,29.52s-13.24,29.52-29.52,29.52-29.52-13.24-29.52-29.52,13.24-29.52,29.52-29.52ZM11,172.14v-42.06c0-14.19,7.06-27.43,18.64-35.41,6.78,5.12,15.22,8.16,24.35,8.16s17.57-3.04,24.35-8.16c3.55,2.45,6.74,5.43,9.41,8.82-2.38,6.52-3.66,13.49-3.66,20.62v56.78c-42.84-.46-65.3-6.24-73.1-8.75ZM193.69,206.33h-98.59v-82.22c0-6.33,1.24-12.5,3.52-18.21.41-.61.7-1.28.85-1.98,3.73-8.29,9.72-15.51,17.43-20.71,7.62,5.88,17.15,9.4,27.5,9.4s19.88-3.51,27.5-9.4c13.53,9.12,21.8,24.46,21.8,40.9v82.22ZM277.97,171.49c-11.93,2.33-46,8.57-73.29,9.36v-56.73c0-7.08-1.26-13.99-3.6-20.46,2.7-3.45,5.94-6.49,9.54-8.98,6.78,5.12,15.22,8.16,24.35,8.16s17.57-3.04,24.35-8.16c11.57,7.98,18.64,21.22,18.64,35.41v41.4Z"/>
</svg>