<?xml version="1.0" encoding="UTF-8"?>
<svg id="Capa_1" data-name="Capa 1" xmlns="http://www.w3.org/2000/svg" viewBox="0 0 280.18 275.3">
  <defs>
    <style>
      .cls-1 {
        fill: #1d1d1b;
        stroke-width: 0px;
      }
    </style>
  </defs>
  <path class="cls-1" d="M207.39-.48c-30.79,0-56.39,15.19-67.23,32.58-3.76-6.07-9.39-11.87-16.6-16.96C109.27,5.06,91.25-.48,72.8-.48,32.66-.48,0,32.17,0,72.31c0,28.78,7.29,57.34,21.65,84.89,11.42,21.89,27.31,43.18,47.24,63.29,33.81,34.11,67.13,52.77,68.53,53.55.83.46,1.75.69,2.67.69s1.84-.23,2.67-.69c1.4-.78,34.72-19.44,68.53-53.55,19.93-20.1,35.82-41.39,47.24-63.29,14.37-27.55,21.65-56.11,21.65-84.89C280.18,32.17,247.53-.48,207.39-.48ZM248.85,151.97c-10.87,20.89-26.07,41.27-45.17,60.57-27.35,27.65-55.06,45.2-63.6,50.32-8.51-5.1-36.05-22.53-63.39-50.11-19.15-19.32-34.39-39.72-45.3-60.63-13.54-25.96-20.41-52.81-20.41-79.8,0-34.07,27.72-61.8,61.8-61.8,27.82,0,61.8,18.05,61.8,39.11,0,3.04,2.46,5.5,5.5,5.5s5.5-2.46,5.5-5.5c0-21.06,33.98-39.11,61.8-39.11,34.07,0,61.8,27.72,61.8,61.8,0,26.94-6.84,53.74-20.33,79.65Z"/>
  <path class="cls-1" d="M194.26,122.57h-28.55v-28.56c0-7.94-6.46-14.4-14.4-14.4h-22.42c-7.94,0-14.4,6.46-14.4,14.4v28.56h-28.55c-7.94,0-14.4,6.46-14.4,14.4v22.42c0,7.94,6.46,14.4,14.4,14.4h28.55v28.56c0,7.94,6.46,14.4,14.4,14.4h22.42c7.94,0,14.4-6.46,14.4-14.4v-28.56h28.55c7.94,0,14.4-6.46,14.4-14.4v-22.42c0-7.94-6.46-14.4-14.4-14.4ZM197.67,159.4c0,1.84-1.56,3.4-3.4,3.4h-34.05c-3.04,0-5.5,2.46-5.5,5.5v34.06c0,1.84-1.56,3.4-3.4,3.4h-22.42c-1.84,0-3.4-1.56-3.4-3.4v-34.06c0-3.04-2.46-5.5-5.5-5.5h-34.05c-1.85,0-3.4-1.56-3.4-3.4v-22.42c0-1.84,1.56-3.4,3.4-3.4h34.05c3.04,0,5.5-2.46,5.5-5.5v-34.06c0-1.84,1.56-3.4,3.4-3.4h22.42c1.84,0,3.4,1.56,3.4,3.4v34.06c0,3.04,2.46,5.5,5.5,5.5h34.05c1.85,0,3.4,1.56,3.4,3.4v22.42Z"/>
</svg>