<?xml version="1.0" encoding="UTF-8"?>
<svg id="Capa_1" data-name="Capa 1" xmlns="http://www.w3.org/2000/svg" viewBox="0 0 327.29 219.8">
  <defs>
    <style>
      .cls-1 {
        fill: #1d1d1b;
        stroke-width: 0px;
      }
    </style>
  </defs>
  <path class="cls-1" d="M322.23,95.65l-29.8-2.4c1.66-13.62-2.76-20.74-5.28-24.77l-.06-.1c-1.94-3.1-4.31-4.99-6.22-6.51-1.75-1.39-3.02-2.4-3.84-4.12-.92-1.92-.91-4.79-.9-7.82.01-4.03.03-8.59-2.1-12.83-2.61-5.18-6.22-7.15-8.86-8.58-1.78-.97-2.6-1.44-3.24-2.52-.64-1.08-.66-2.03-.63-4.09.03-2.32.06-5.2-1.29-8.64-2.41-6.13-8.64-13.28-18.3-13.28s-15.89,7.15-18.3,13.28c-1.35,3.44-1.31,6.32-1.29,8.64.02,2.06,0,3.01-.63,4.09-.64,1.08-1.46,1.56-3.24,2.52-2.64,1.43-6.25,3.39-8.86,8.58-2.13,4.24-2.12,8.8-2.1,12.83.01,3.03.02,5.9-.9,7.82-.82,1.71-2.09,2.72-3.84,4.12-.31.24-.63.5-.95.77-.12-1.12-.12-2.41-.11-3.76.01-3.39.03-7.23-1.82-10.89-2.27-4.5-5.49-6.25-7.63-7.42-1.47-.8-1.88-1.07-2.25-1.68-.36-.6-.39-1.09-.37-2.79.02-1.87.05-4.43-1.12-7.41-2.73-6.96-8.94-11.45-15.83-11.45s-13.1,4.49-15.83,11.45c-1.17,2.98-1.14,5.54-1.12,7.41.02,1.69-.01,2.19-.37,2.79-.36.61-.78.88-2.25,1.68-2.13,1.16-5.36,2.91-7.63,7.42-1.84,3.67-1.83,7.5-1.82,10.89,0,2.35.02,4.56-.63,5.91-.54,1.13-1.34,1.8-2.83,2.98-1.61,1.28-3.62,2.88-5.29,5.55-1.32,2.11-2.2,4.76-2.77,7.02l-71.88-5.78c-.68-.05-1.37.02-2.02.22L3.92,91.06c-2.33.7-3.92,2.84-3.92,5.27v24.49c0,3.04,2.46,5.5,5.5,5.5h12.87v87.98c0,3.04,2.46,5.5,5.5,5.5h278.88c3.04,0,5.5-2.46,5.5-5.5v-87.98h13.54c3.04,0,5.5-2.46,5.5-5.5v-19.69c0-2.87-2.2-5.25-5.06-5.48ZM209.4,70.48c2.23-1.77,5-3.98,6.91-7.97,2.01-4.19,1.99-8.66,1.98-12.61-.01-3.06-.02-5.95.93-7.84,1.06-2.11,2.21-2.73,4.28-3.86,2.2-1.2,5.22-2.84,7.44-6.55,2.26-3.79,2.22-7.3,2.19-9.86-.02-1.77-.04-3.05.53-4.49.41-1.05,2.74-6.3,8.06-6.3s7.65,5.25,8.06,6.3c.56,1.44.55,2.72.53,4.49-.03,2.56-.07,6.07,2.19,9.86,2.22,3.72,5.24,5.36,7.44,6.55,2.08,1.13,3.22,1.75,4.28,3.86.95,1.89.94,4.78.93,7.84-.01,3.95-.03,8.42,1.98,12.61,1.91,4,4.68,6.2,6.91,7.97,1.57,1.25,2.8,2.23,3.74,3.73l.06.1c2.04,3.26,4.98,8,3.64,18.06l-78.62-6.32c.09-6.25,1.07-9.03,2.83-11.84.94-1.5,2.17-2.48,3.74-3.73ZM144.05,79.15c.67-1.07,1.56-1.78,2.81-2.77,1.89-1.51,4.25-3.38,5.91-6.84,1.73-3.62,1.72-7.38,1.71-10.7,0-2.36-.02-4.59.64-5.91.72-1.43,1.45-1.82,3.05-2.7,1.9-1.03,4.49-2.44,6.44-5.7,1.99-3.33,1.95-6.35,1.92-8.55-.02-1.5,0-2.32.36-3.26.29-.75,1.94-4.47,5.59-4.47s5.3,3.72,5.59,4.47c.37.94.38,1.76.36,3.26-.03,2.21-.06,5.23,1.92,8.55,1.95,3.26,4.54,4.67,6.44,5.7,1.6.87,2.33,1.27,3.05,2.7.66,1.31.65,3.54.64,5.91-.01,3.32-.03,7.08,1.71,10.7.58,1.21,1.24,2.21,1.95,3.09-1.46,3.55-2.16,7.45-2.29,12.53l-48.71-3.92c.28-.83.58-1.57.91-2.1ZM65.13,207.42v-45.74h28.03v45.74h-28.03ZM297.25,208.8H104.16v-52.62c0-3.04-2.46-5.5-5.5-5.5h-39.03c-3.04,0-5.5,2.46-5.5,5.5v52.62h-24.77v-82.48h267.88v82.48ZM316.29,115.32H11v-14.9l49.22-14.81,256.07,20.59v9.11Z"/>
  <path class="cls-1" d="M144.02,191.3h36.47c3.04,0,5.5-2.46,5.5-5.5v-36.47c0-3.04-2.46-5.5-5.5-5.5h-36.47c-3.04,0-5.5,2.46-5.5,5.5v36.47c0,3.04,2.46,5.5,5.5,5.5ZM149.52,154.82h25.47v25.47h-25.47v-25.47Z"/>
  <path class="cls-1" d="M214.17,191.3h36.47c3.04,0,5.5-2.46,5.5-5.5v-36.47c0-3.04-2.46-5.5-5.5-5.5h-36.47c-3.04,0-5.5,2.46-5.5,5.5v36.47c0,3.04,2.46,5.5,5.5,5.5ZM219.67,154.82h25.47v25.47h-25.47v-25.47Z"/>
</svg>