<?xml version="1.0" encoding="UTF-8"?>
<svg id="Capa_1" data-name="Capa 1" xmlns="http://www.w3.org/2000/svg" viewBox="0 0 211.01 247.87">
  <defs>
    <style>
      .cls-1 {
        fill: #1d1d1b;
        stroke-width: 0px;
      }
    </style>
  </defs>
  <path class="cls-1" d="M206.21,20.26l-20.77-2.67v-2.62c0-2.77-2.06-5.1-4.8-5.46L106.2,0c-.46-.06-.93-.06-1.39,0L30.38,9.51c-2.75.35-4.8,2.69-4.8,5.46v2.62l-20.77,2.67c-2.74.35-4.8,2.69-4.8,5.46v116.67c0,58.18,47.33,105.51,105.51,105.51s105.51-47.33,105.51-105.51V25.71c0-2.77-2.05-5.1-4.8-5.46ZM200.01,142.39c0,52.11-42.4,94.51-94.51,94.51S11,194.5,11,142.39V30.55l20.77-2.67c2.74-.35,4.8-2.69,4.8-5.46v-2.62l68.93-8.81,68.93,8.81v2.62c0,2.77,2.05,5.1,4.8,5.46l20.77,2.67v111.84Z"/>
  <path class="cls-1" d="M153.02,61.89c-2.15-2.15-5.63-2.15-7.78,0l-56.93,56.93-22.26-22.26c-2.15-2.15-5.63-2.15-7.78,0l-23.43,23.43c-2.15,2.15-2.15,5.63,0,7.78l49.58,49.58c1.07,1.07,2.48,1.61,3.89,1.61s2.82-.54,3.89-1.61l84.25-84.25c1.03-1.03,1.61-2.43,1.61-3.89s-.58-2.86-1.61-3.89l-23.43-23.43ZM88.31,165.68l-41.81-41.81,15.65-15.65,22.26,22.26c2.15,2.15,5.63,2.15,7.78,0l56.93-56.93,15.65,15.65-76.47,76.47Z"/>
</svg>