<?xml version="1.0" encoding="UTF-8"?>
<svg id="Capa_1" data-name="Capa 1" xmlns="http://www.w3.org/2000/svg" viewBox="0 0 252.77 275.87">
  <defs>
    <style>
      .cls-1 {
        fill: #1d1d1b;
        stroke-width: 0px;
      }
    </style>
  </defs>
  <path class="cls-1" d="M231.21,196.61c3.87,0,7-3.13,7-7s-3.13-7-7-7c-11.12,0-16.93,3.04-22.05,5.71-3.02,1.58-5.64,2.94-9.49,3.63.98-7.23,2.63-13.86,4.68-19.87,4.42-1.11,7.68-2.79,10.6-4.32,4.4-2.3,8.21-4.29,16.26-4.29,3.04,0,5.5-2.46,5.5-5.5s-2.46-5.5-5.5-5.5c-10.34,0-15.95,2.72-20.78,5.24,6.98-13.62,15.06-22.27,18.19-25.35,2.22-2.05,4.34-4.25,6.31-6.62,11.5-13.85,17.84-31.97,17.84-51.02s-6.33-37.17-17.84-51.03C222.43,8.63,204.69,0,186.26,0s-36.17,8.63-48.67,23.68c-7.96,9.59-13.44,21.22-16.07,33.79-12.27-8.45-26.84-13.03-41.93-13.03C38.8,44.45,5.6,77.64,5.6,118.44c0,12.19,3.05,24.16,8.72,34.81-2.52-.49-5.41-.78-8.82-.78-3.04,0-5.5,2.46-5.5,5.5s2.46,5.5,5.5,5.5c8.05,0,11.86,1.99,16.26,4.29,4.97,2.6,10.6,5.54,21.36,5.54s16.39-2.94,21.36-5.54c4.4-2.3,8.21-4.29,16.26-4.29s11.86,1.99,16.26,4.29c4.97,2.6,10.6,5.54,21.36,5.54s16.39-2.94,21.36-5.54c4.4-2.3,8.21-4.29,16.26-4.29,3.65,0,6.63.4,9.42,1.26,2.59,6.1,4.84,13,6.37,20.63l-.08-.03c-4.75-1.85-9.74-2.71-15.7-2.71-11.12,0-16.93,3.04-22.05,5.71-4.4,2.3-7.88,4.12-15.56,4.12s-11.16-1.82-15.57-4.12c-5.12-2.68-10.93-5.71-22.05-5.71s-16.93,3.04-22.05,5.71c-4.4,2.3-7.88,4.12-15.56,4.12s-11.16-1.82-15.56-4.12c-5.12-2.68-10.93-5.71-22.05-5.71-3.87,0-7,3.13-7,7s3.13,7,7,7c7.68,0,11.16,1.82,15.56,4.12,5.12,2.68,10.93,5.71,22.05,5.71s16.93-3.04,22.05-5.71c4.4-2.3,7.88-4.12,15.56-4.12s11.16,1.82,15.57,4.12c5.12,2.68,10.93,5.71,22.05,5.71s16.93-3.04,22.05-5.71c4.4-2.3,7.88-4.12,15.56-4.12,5.41,0,8.51.94,10.62,1.76l.31.12c.68.28,1.38.44,2.08.49-1.1,2.29-1.73,4.84-1.73,7.54v10.58c-3.44-.91-7.11-1.35-11.27-1.35-10.76,0-16.39,2.94-21.36,5.54-4.4,2.3-8.21,4.29-16.26,4.29s-11.86-1.99-16.26-4.29c-4.97-2.6-10.6-5.54-21.36-5.54s-16.39,2.94-21.36,5.54c-4.4,2.3-8.21,4.29-16.26,4.29s-11.86-1.99-16.26-4.29c-4.97-2.6-10.6-5.54-21.36-5.54-3.04,0-5.5,2.46-5.5,5.5s2.46,5.5,5.5,5.5c8.05,0,11.86,1.99,16.26,4.29,4.97,2.6,10.6,5.54,21.36,5.54s16.39-2.94,21.36-5.54c4.4-2.3,8.21-4.29,16.26-4.29s11.86,1.99,16.26,4.29c4.97,2.6,10.6,5.54,21.36,5.54s16.39-2.94,21.36-5.54c4.4-2.3,8.21-4.29,16.26-4.29,4.42,0,7.86.57,11.16,1.86l.11.04v20.09c-3.44-.91-7.11-1.35-11.27-1.35-10.76,0-16.39,2.94-21.36,5.54-4.4,2.3-8.21,4.29-16.26,4.29s-11.86-1.99-16.26-4.29c-4.97-2.6-10.6-5.54-21.36-5.54s-16.39,2.94-21.36,5.54c-4.4,2.3-8.21,4.29-16.26,4.29s-11.86-1.99-16.26-4.29c-4.97-2.6-10.6-5.54-21.36-5.54-3.04,0-5.5,2.46-5.5,5.5s2.46,5.5,5.5,5.5c8.05,0,11.86,1.99,16.26,4.29,4.97,2.6,10.6,5.54,21.36,5.54s16.39-2.94,21.36-5.54c4.4-2.3,8.21-4.29,16.26-4.29s11.86,1.99,16.26,4.29c4.97,2.6,10.6,5.54,21.36,5.54s16.39-2.94,21.36-5.54c4.4-2.3,8.21-4.29,16.26-4.29,4.42,0,7.86.57,11.16,1.86l.33.13c.06.03.13.04.19.07,1.71,7.87,8.72,13.79,17.1,13.79h3.04c5.54,0,10.48-2.6,13.69-6.63,5.96-1,9.95-3.09,13.47-4.93,4.4-2.3,8.21-4.29,16.26-4.29,3.04,0,5.5-2.46,5.5-5.5s-2.46-5.5-5.5-5.5c-10.76,0-16.39,2.94-21.36,5.54-1.55.81-3,1.57-4.57,2.21v-20.03c3.95-1.1,6.95-2.66,9.66-4.08,4.4-2.3,8.21-4.29,16.26-4.29,3.04,0,5.5-2.46,5.5-5.5s-2.46-5.5-5.5-5.5c-10.76,0-16.39,2.94-21.36,5.54-1.55.81-3,1.57-4.57,2.21v-16.98c0-.5-.03-.99-.08-1.48,4.32-1.14,7.54-2.81,10.43-4.32,4.4-2.3,7.88-4.12,15.57-4.12ZM188.96,189.02h-5.4c-2.56-17.42-8.57-31.57-14.83-42.26,5.67,1.73,11.56,2.65,17.53,2.65s11.86-.92,17.53-2.65c-6.26,10.69-12.27,24.84-14.83,42.26ZM122.26,127.59l-14.7-4.96-8.16-25.12,10.31-12.5,10.74.48c1.59,12.45,5.94,24.18,12.67,34.22l-10.85,7.88ZM79.6,138.84l-20.07-14.58,7.64-23.53s.07-.04.1-.07h24.73l7.67,23.59-20.07,14.58ZM51.64,122.64l-14.63,4.94-19.32-14.04c-.26-.19-.55-.33-.83-.45.83-9.8,3.9-18.96,8.71-26.97l23.37-1.04,10.53,13.52-7.81,24.04ZM25.88,151.33c-5.27-8.62-8.42-18.45-9.12-28.58l14.89,10.82-5.77,17.76ZM137.91,126.11c1.16,1.37,2.37,2.68,3.61,3.95-1.4,7.51-4.17,14.68-8.14,21.19l-5.74-17.67,10.28-7.47ZM146.05,30.71c10.4-12.53,25.06-19.71,40.21-19.71s29.81,7.18,40.21,19.71c9.87,11.88,15.3,27.51,15.3,44s-5.43,32.12-15.3,44c-1.23,1.49-2.53,2.89-3.88,4.22-.36.32-1.09.97-2.1,1.97-9.69,8.67-21.79,13.52-34.24,13.52s-24.55-4.85-34.24-13.53c-1-.99-1.72-1.64-2.09-1.96-1.35-1.33-2.65-2.74-3.88-4.23-9.87-11.88-15.3-27.51-15.3-44s5.43-32.12,15.3-44ZM119.81,77.46l-8.89-.39-4.29-15.52c4.73,2.25,9.19,5.08,13.27,8.48-.09,1.55-.14,3.11-.14,4.68,0,.92.03,1.83.06,2.75ZM97.35,58l6.09,22.04-10.42,12.63h-25.51l-10.77-13.84,5.81-21.01c5.43-1.53,11.14-2.36,17.05-2.36s12.04.88,17.75,2.55ZM53.3,61.22l-4.38,15.84s0,0,0,0l-17.43.77c5.93-7.02,13.37-12.72,21.81-16.62ZM59.37,158.01c-4.4,2.3-8.21,4.29-16.26,4.29-4.97,0-8.32-.76-11.2-1.88-.09-.33-.21-.65-.36-.96.14-.24.26-.48.34-.75l7.65-23.55,14.6-4.92,21.45,15.59v6.9c-7.54.76-12.11,3.14-16.22,5.29ZM102.09,158.01c-4.51-2.36-9.57-4.99-18.49-5.46v-6.73l21.45-15.59,14.7,4.96,7.64,23.51c.07.2.15.39.24.57-.43.63-.72,1.32-.86,2.04-2.28.6-4.96.97-8.43.97-8.05,0-11.86-1.99-16.26-4.29ZM155.96,152.46c-4.62,0-8.3.55-11.38,1.37,2.45-4.49,4.43-9.22,5.9-14.12,2.69,3.35,5.77,7.65,8.81,12.86-1.08-.07-2.18-.11-3.32-.11ZM194.28,256.74c0,3.58-2.92,6.5-6.5,6.5h-3.04c-3.58,0-6.5-2.92-6.5-6.5v-50.22c0-3.58,2.92-6.5,6.5-6.5h3.04c3.58,0,6.5,2.92,6.5,6.5v50.22Z"/>
  <path class="cls-1" d="M186.26,123.12c22.63,0,41.04-21.72,41.04-48.41s-18.41-48.41-41.04-48.41-41.04,21.72-41.04,48.41,18.41,48.41,41.04,48.41ZM158.16,58.41h13.47v12.34h-16.25c.36-4.37,1.33-8.53,2.78-12.34ZM214.36,91.01h-13.7v-12.26h16.47c-.37,4.34-1.33,8.47-2.77,12.26ZM192.66,91.01h-13.04v-12.26h13.04v12.26ZM217.14,70.75h-16.47v-12.34h13.7c1.45,3.82,2.42,7.97,2.78,12.34ZM192.66,70.75h-13.04v-12.34h13.04v12.34ZM171.63,78.75v12.26h-13.47c-1.44-3.79-2.4-7.92-2.77-12.26h16.24ZM162.24,99.01h9.39v9.56c-3.62-2.4-6.81-5.66-9.39-9.56ZM179.63,112.23v-13.22h13.04v13.28c-2.07.54-4.21.83-6.41.83s-4.49-.31-6.63-.89ZM200.66,108.72v-9.71h9.61c-2.64,3.98-5.91,7.29-9.61,9.71ZM210.28,50.41h-9.61v-9.71c3.71,2.41,6.98,5.73,9.61,9.71ZM192.66,37.12v13.28h-13.04v-13.22c2.14-.58,4.36-.89,6.63-.89s4.34.29,6.41.83ZM171.63,40.84v9.56h-9.39c2.58-3.9,5.77-7.16,9.39-9.56Z"/>
</svg>