<?xml version="1.0" encoding="UTF-8"?>
<svg id="Capa_1" data-name="Capa 1" xmlns="http://www.w3.org/2000/svg" viewBox="0 0 271.77 204">
  <defs>
    <style>
      .cls-1 {
        fill: #1d1d1b;
        stroke-width: 0px;
      }
    </style>
  </defs>
  <path class="cls-1" d="M54.18,145.1c18.37-.95,37.01,2.91,55.46,11.46.75.35,1.54.51,2.31.51,2.08,0,4.06-1.18,4.99-3.19,1.28-2.76.08-6.03-2.68-7.3-20.08-9.31-40.5-13.51-60.65-12.46-3.03.16-5.37,2.74-5.21,5.78.16,3.03,2.73,5.36,5.78,5.21Z"/>
  <path class="cls-1" d="M54.18,100.45c18.36-.95,37.01,2.91,55.46,11.46.75.35,1.54.51,2.31.51,2.08,0,4.06-1.18,4.99-3.19,1.28-2.76.08-6.03-2.68-7.3-20.08-9.31-40.48-13.5-60.65-12.46-3.03.16-5.37,2.74-5.21,5.78.16,3.03,2.76,5.36,5.78,5.21Z"/>
  <path class="cls-1" d="M54.18,55.8c18.36-.95,37.01,2.91,55.46,11.46.75.35,1.54.51,2.31.51,2.08,0,4.06-1.18,4.99-3.19,1.28-2.76.08-6.03-2.68-7.3-20.08-9.31-40.48-13.5-60.65-12.46-3.03.16-5.37,2.74-5.21,5.78.16,3.03,2.76,5.35,5.78,5.21Z"/>
  <path class="cls-1" d="M159.83,157.07c.77,0,1.56-.16,2.31-.51,18.44-8.55,37.1-12.4,55.46-11.46,3.05.16,5.62-2.18,5.78-5.21.16-3.03-2.18-5.62-5.21-5.78-20.15-1.04-40.57,3.15-60.65,12.46-2.76,1.28-3.95,4.55-2.68,7.3.93,2.01,2.92,3.19,4.99,3.19Z"/>
  <path class="cls-1" d="M159.83,112.42c.77,0,1.56-.16,2.31-.51,18.44-8.55,37.1-12.41,55.46-11.46,3.05.15,5.62-2.18,5.78-5.21.16-3.03-2.17-5.62-5.21-5.78-20.15-1.04-40.57,3.15-60.65,12.46-2.76,1.28-3.95,4.55-2.68,7.3.93,2.01,2.92,3.19,4.99,3.19Z"/>
  <path class="cls-1" d="M159.83,67.77c.77,0,1.56-.16,2.31-.51,18.44-8.55,37.1-12.41,55.46-11.46,3.05.16,5.62-2.18,5.78-5.21.16-3.03-2.17-5.62-5.21-5.78-20.15-1.04-40.57,3.15-60.65,12.46-2.76,1.28-3.95,4.55-2.68,7.3.93,2.01,2.92,3.19,4.99,3.19Z"/>
  <path class="cls-1" d="M266.27,22.96h-18.96V6.33c0-2.82-2.14-5.19-4.95-5.47-34.87-3.52-71.63,3.79-106.49,21.14C101.03,4.65,64.28-2.66,29.4.86c-2.81.28-4.95,2.65-4.95,5.47v16.63H5.5c-3.04,0-5.5,2.46-5.5,5.5v170.04c0,3.04,2.46,5.5,5.5,5.5h260.77c3.04,0,5.5-2.46,5.5-5.5V28.46c0-3.04-2.46-5.5-5.5-5.5ZM236.32,11.39v159.32c-31.22-2.03-63.75,4.49-94.93,18.99V31.55c31.16-15.39,63.8-22.32,94.93-20.16ZM35.46,11.39c31.13-2.16,63.78,4.77,94.93,20.16v158.14c-27.48-12.78-56-19.35-83.74-19.35-3.74,0-7.48.12-11.19.36V11.39ZM11,33.96h13.46v142.72c0,1.55.66,3.04,1.81,4.08,1.15,1.04,2.69,1.55,4.24,1.39,25.82-2.61,52.8,1.14,79.21,10.86H11V33.96ZM260.77,193h-98.72c26.41-9.72,53.39-13.46,79.21-10.86,1.55.15,3.09-.35,4.24-1.39,1.15-1.04,1.81-2.52,1.81-4.08V33.96h13.46v159.04Z"/>
</svg>