<?xml version="1.0" encoding="UTF-8"?>
<svg id="Capa_1" data-name="Capa 1" xmlns="http://www.w3.org/2000/svg" viewBox="0 0 281.84 275.18">
  <defs>
    <style>
      .cls-1 {
        fill: #1d1d1b;
        stroke-width: 0px;
      }
    </style>
  </defs>
  <path class="cls-1" d="M274.88,87.71c-.09-.36-.21-.71-.37-1.06-10.4-29.51-31.19-54.16-57.96-69.53-.38-.28-.79-.52-1.24-.7C196.62,5.97,175.1,0,152.21,0c-1.69,0-3.38.04-5.07.11-.24,0-.47,0-.71.04-19.37.86-38.32,6.04-55.34,15.15-4.78-3.78-9.79-7.27-15.02-10.44-1.75-1.06-3.95-1.06-5.7,0-21.07,12.76-38.71,30.78-51,52.12C6.7,78.97,0,104.1,0,129.63s6.7,50.65,19.37,72.65c11.77,20.43,28.45,37.81,48.35,50.45v16.94c0,3.04,2.46,5.5,5.5,5.5s5.5-2.46,5.5-5.5v-16.94c4.27-2.72,8.41-5.64,12.37-8.78,18.71,10.01,39.76,15.3,61.13,15.3,71.48,0,129.63-58.15,129.63-129.63,0-14.66-2.45-28.77-6.96-41.92ZM262.38,85.64c-8.1,1.79-18.87.23-23.18-5.17-1.68-2.1-3.02-4.67-4.45-7.39-2.13-4.06-4.33-8.25-8.01-11.77-2.13-2.04-4.47-3.55-6.73-5.02-2.94-1.91-5.47-3.56-6.69-5.76-1.5-2.74-1.43-6.85.19-10.73,1.41-3.38,2.5-6.74,3.32-9.6,20.35,13.27,36.4,32.62,45.55,55.45ZM139.37,11.71c-.41.56-.83,1.14-1.25,1.81-.64,1.03-1.36,2.05-2.13,3.14-1.65,2.34-3.52,4.99-4.78,8.11-.67,1.67-1.1,3.27-1.51,4.82-.38,1.44-.74,2.81-1.25,3.92-1.43,3.19-5.9,8-9.82,10.53-5.51-7.58-11.74-14.61-18.58-20.99,12.32-6.03,25.64-9.85,39.31-11.34ZM78.72,202.83c12.57-5.11,26.89-19.41,31.66-32.49,1.04-2.85-.43-6.01-3.28-7.05-2.85-1.04-6.01.43-7.05,3.28-3.4,9.32-13,19.08-21.32,24v-31.28c12.57-5.11,26.89-19.41,31.66-32.49,1.04-2.85-.43-6.01-3.28-7.05-2.85-1.04-6.01.43-7.05,3.28-3.4,9.32-13,19.08-21.32,24v-31.28c12.57-5.11,26.89-19.41,31.66-32.49,1.04-2.85-.43-6.01-3.28-7.05-2.85-1.04-6.01.43-7.05,3.28-3.4,9.32-13,19.08-21.32,24v-46.79c0-3.04-2.46-5.5-5.5-5.5s-5.5,2.46-5.5,5.5v46.79c-8.32-4.92-17.93-14.68-21.32-24-1.04-2.85-4.2-4.32-7.05-3.28-2.85,1.04-4.32,4.2-3.28,7.05,4.77,13.08,19.09,27.38,31.66,32.49v31.28c-8.32-4.92-17.93-14.68-21.32-24-1.04-2.85-4.2-4.32-7.05-3.28-2.85,1.04-4.32,4.2-3.28,7.05,4.77,13.08,19.09,27.38,31.66,32.49v31.28c-8.32-4.92-17.93-14.68-21.32-24-1.04-2.85-4.2-4.32-7.05-3.28-2.85,1.04-4.32,4.2-3.28,7.05,4.77,13.08,19.09,27.38,31.66,32.49v36.65c-15.8-11.25-29.11-25.85-38.81-42.69-11.71-20.33-17.9-43.56-17.9-67.16s6.19-46.83,17.9-67.16c10.81-18.76,26.09-34.75,44.31-46.42,18.23,11.67,33.51,27.66,44.31,46.42,11.71,20.33,17.9,43.56,17.9,67.16s-6.19,46.83-17.9,67.16c-9.7,16.84-23.01,31.44-38.81,42.69v-36.65ZM152.21,248.25c-18.12,0-36-4.15-52.14-12.05,10.6-9.89,19.74-21.32,27-33.93,12.67-22,19.37-47.12,19.37-72.65s-6.7-50.65-19.37-72.65c-.74-1.28-1.5-2.55-2.28-3.81,6.17-4.01,11.67-10.6,13.71-15.14.87-1.94,1.39-3.89,1.85-5.62.34-1.28.66-2.49,1.08-3.53.78-1.94,2.13-3.85,3.56-5.88.82-1.17,1.67-2.37,2.48-3.67.37-.6.85-1.22,1.36-1.88,1.21-1.58,2.79-3.65,3.54-6.44,19.69.03,38.27,4.88,54.62,13.43-.73,2.91-1.93,7.06-3.63,11.13-2.92,7-2.8,14.57.32,20.26,2.54,4.63,6.68,7.32,10.33,9.69,1.92,1.25,3.74,2.43,5.14,3.76,2.37,2.26,4.06,5.49,5.85,8.91,1.6,3.06,3.26,6.22,5.6,9.15,5.47,6.86,15.38,10.05,25.04,10.05,3.57,0,7.1-.44,10.36-1.29,3.14,10.64,4.83,21.89,4.83,33.53,0,65.41-53.22,118.63-118.63,118.63Z"/>
  <path class="cls-1" d="M254.44,130.73c-3.05-3.51-7.61-5.92-13.18-6.97-.42-.08-.84-.15-1.27-.22-1.15-.19-2.34-.39-2.92-.73-1.07-.62-2.02-2.76-2.94-4.83-1.64-3.67-3.88-8.7-9.42-10.51-1.95-.64-3.77-.66-5.24-.68-.73-.01-1.64-.02-1.97-.14-.64-.23-1.75-1.79-2.57-2.92-1.84-2.57-4.37-6.1-8.95-7.12-3.54-.79-6.6.09-8.84.74-2.01.58-2.91.79-3.75.51-.83-.28-1.77-.76-2.77-1.28-3.1-1.6-7.34-3.79-12.77-1.99-9.29,3.07-10.58,12.13-11.52,18.74-.47,3.32-.96,6.75-2.21,8.37h0c-.42.55-1.07,1.15-1.75,1.8-1.23,1.16-2.76,2.6-3.91,4.56-2.58,4.38-2.61,10.13-.08,16.19,2.8,6.71,7.73,12.55,13.88,16.43,1.12.71,2.25,1.34,3.35,1.95,2.75,1.54,5.34,2.99,6.32,4.88.72,1.39.83,3.54.33,6.59-.89,5.46-2.86,10.8-4.94,16.45-2.96,8.05-6.03,16.38-6.03,25.54,0,7.06,3.54,9.78,5.65,10.78.78.37,2.1.83,3.79.83,2.37,0,5.48-.91,8.86-4.25,2.77-2.73,5.14-5.7,7.43-8.58,2.94-3.69,5.72-7.17,9.06-9.83,2.41-1.93,5.22-3.5,8.2-5.17,1.7-.96,3.46-1.94,5.2-3.03,12.14-7.6,21.61-19.16,26.67-32.56.27-.73.54-1.46.8-2.2,1.02-2.84,1.97-5.53,3.54-7.31.47-.54,1.1-1.11,1.76-1.72,1.47-1.34,3.31-3.02,4.59-5.39,2.82-5.23,1.86-12.03-2.38-16.91ZM247.13,142.42c-.39.72-1.32,1.57-2.31,2.47-.82.75-1.75,1.59-2.62,2.59-2.94,3.36-4.37,7.35-5.62,10.87-.24.68-.48,1.35-.74,2.02-4.21,11.16-12.09,20.79-22.21,27.12-1.52.95-3.09,1.83-4.75,2.76-3.23,1.81-6.56,3.68-9.67,6.17-4.3,3.43-7.6,7.57-10.79,11.57-2.05,2.57-4,5.01-6.13,7.18.2-6.89,2.7-13.67,5.34-20.84,2.17-5.89,4.41-11.98,5.47-18.47.57-3.49,1.05-8.68-1.42-13.43-2.5-4.82-6.87-7.26-10.72-9.42-1.01-.57-1.97-1.1-2.84-1.65-4.25-2.69-7.67-6.73-9.6-11.37-1.13-2.7-1.35-5.08-.59-6.36.36-.62,1.15-1.36,1.99-2.15.92-.86,1.96-1.84,2.91-3.07,3.03-3.92,3.76-9.04,4.4-13.55.95-6.69,1.67-9.05,4.08-9.85.9-.3,1.77.03,4.28,1.33,1.26.65,2.7,1.39,4.32,1.93,4.18,1.4,7.71.38,10.29-.37,1.61-.46,2.62-.74,3.39-.57.49.11,1.78,1.92,2.41,2.79,1.75,2.45,3.94,5.5,7.83,6.88,2.05.73,3.96.76,5.51.78.76.01,1.62.02,1.97.14.9.29,1.95,2.64,2.79,4.53,1.48,3.33,3.33,7.46,7.46,9.87,2.31,1.34,4.7,1.74,6.62,2.07.35.06.71.12,1.06.18,2.17.41,5.13,1.33,6.91,3.37,1.16,1.34,1.61,3.35,1,4.48Z"/>
</svg>