<?xml version="1.0" encoding="UTF-8"?>
<svg id="Capa_2" data-name="Capa 2" xmlns="http://www.w3.org/2000/svg" xmlns:xlink="http://www.w3.org/1999/xlink" viewBox="0 0 716.06 188.7">
  <defs>
    <style>
      .cls-1 {
        fill: none;
      }

      .cls-2 {
        fill: #e83849;
      }

      .cls-3 {
        fill: #001d97;
      }

      .cls-4 {
        clip-path: url(#clippath-1);
      }

      .cls-5 {
        clip-path: url(#clippath-3);
      }

      .cls-6 {
        clip-path: url(#clippath-4);
      }

      .cls-7 {
        clip-path: url(#clippath-2);
      }

      .cls-8 {
        fill: #fff;
      }

      .cls-9 {
        fill: url(#Degradado_sin_nombre);
      }

      .cls-10 {
        fill: url(#Degradado_sin_nombre_9-2);
      }

      .cls-11 {
        fill: url(#Degradado_sin_nombre_5-2);
      }

      .cls-12 {
        fill: #006fb4;
      }

      .cls-13 {
        fill: url(#Degradado_sin_nombre_5);
      }

      .cls-14 {
        fill: url(#Degradado_sin_nombre_9);
      }

      .cls-15 {
        fill: #0067cd;
      }

      .cls-16 {
        fill: #0097ff;
      }

      .cls-17 {
        fill: url(#Degradado_sin_nombre_18);
      }

      .cls-18 {
        fill: url(#Degradado_sin_nombre_20);
      }

      .cls-19 {
        clip-path: url(#clippath);
      }
    </style>
    <linearGradient id="Degradado_sin_nombre" data-name="Degradado sin nombre" x1="102.42" y1="145.55" x2="188.67" y2="145.55" gradientUnits="userSpaceOnUse">
      <stop offset="0" stop-color="#fa0023"/>
      <stop offset="0" stop-color="#fa0023"/>
      <stop offset=".39" stop-color="#fa0224"/>
      <stop offset=".62" stop-color="#fb0a2b"/>
      <stop offset=".81" stop-color="#fc1936"/>
      <stop offset=".98" stop-color="#fe2d46"/>
      <stop offset="1" stop-color="#ff3049"/>
    </linearGradient>
    <clipPath id="clippath">
      <path class="cls-9" d="M118.01,102.42c-8.61,0-15.59,6.98-15.59,15.59v55.07c0,8.61,6.98,15.59,15.59,15.59h54.41c8.98,0,16.25-7.28,16.25-16.25v-54.41c0-8.61-6.98-15.59-15.59-15.59h-55.07Z"/>
    </clipPath>
    <clipPath id="clippath-1">
      <path class="cls-1" d="M15.14,102.42h55.97c8.36,0,15.14,6.78,15.14,15.14v55.97c0,8.36-6.78,15.14-15.14,15.14H15.14c-8.36,0-15.14-6.78-15.14-15.14v-55.97c0-8.36,6.78-15.14,15.14-15.14Z"/>
    </clipPath>
    <linearGradient id="Degradado_sin_nombre_20" data-name="Degradado sin nombre 20" x1="-141.8" y1="736.88" x2="-140.8" y2="736.88" gradientTransform="translate(-12143.78 -63411.03) rotate(-180) scale(86.25 -86.25)" gradientUnits="userSpaceOnUse">
      <stop offset="0" stop-color="#0097ff"/>
      <stop offset=".14" stop-color="#0088e3"/>
      <stop offset=".3" stop-color="#007dce"/>
      <stop offset=".47" stop-color="#0075bf"/>
      <stop offset=".68" stop-color="#0070b6"/>
      <stop offset=".98" stop-color="#006fb4"/>
      <stop offset="1" stop-color="#0067cd"/>
    </linearGradient>
    <clipPath id="clippath-2">
      <path class="cls-1" d="M15.66,0h54.92c8.64,0,15.66,7.02,15.66,15.66v54.92c0,8.65-7.02,15.66-15.66,15.66H15.66c-8.64,0-15.66-7.02-15.66-15.66V15.66C0,7.02,7.02,0,15.66,0Z"/>
    </clipPath>
    <linearGradient id="Degradado_sin_nombre_18" data-name="Degradado sin nombre 18" x1="-141.8" y1="736.88" x2="-140.8" y2="736.88" gradientTransform="translate(12230.03 63599.7) scale(86.25 -86.25)" gradientUnits="userSpaceOnUse">
      <stop offset="0" stop-color="#0097ff"/>
      <stop offset="0" stop-color="#006fb4"/>
      <stop offset=".23" stop-color="#0078bf"/>
      <stop offset=".64" stop-color="#0091de"/>
      <stop offset="1" stop-color="#00adff"/>
    </linearGradient>
    <linearGradient id="Degradado_sin_nombre_9" data-name="Degradado sin nombre 9" x1="102.42" y1="43.12" x2="188.67" y2="43.12" gradientUnits="userSpaceOnUse">
      <stop offset="0" stop-color="#0097ff"/>
      <stop offset=".04" stop-color="#0088f2"/>
      <stop offset=".16" stop-color="#0067d7"/>
      <stop offset=".28" stop-color="#004cc0"/>
      <stop offset=".41" stop-color="#0037ae"/>
      <stop offset=".56" stop-color="#0028a1"/>
      <stop offset=".73" stop-color="#001f9a"/>
      <stop offset="1" stop-color="#001d98"/>
      <stop offset="1" stop-color="#001d98"/>
    </linearGradient>
    <clipPath id="clippath-3">
      <path class="cls-14" d="M117.75,0h55.6c8.46,0,15.32,6.87,15.32,15.32v55.6c0,8.46-6.87,15.32-15.32,15.32h-55.6c-8.46,0-15.32-6.87-15.32-15.32V15.32c0-8.46,6.87-15.32,15.32-15.32Z"/>
    </clipPath>
    <linearGradient id="Degradado_sin_nombre_9-2" data-name="Degradado sin nombre 9" x1="-141.61" y1="736.88" x2="-140.61" y2="736.88" gradientTransform="translate(15586.8 80571.61) scale(109.28 -109.28)" xlink:href="#Degradado_sin_nombre_9"/>
    <linearGradient id="Degradado_sin_nombre_5" data-name="Degradado sin nombre 5" x1="113.32" y1="150.96" x2="188.67" y2="150.96" gradientUnits="userSpaceOnUse">
      <stop offset="0" stop-color="#0cf"/>
      <stop offset="1" stop-color="#0097ff"/>
      <stop offset="1" stop-color="#0097ff"/>
    </linearGradient>
    <clipPath id="clippath-4">
      <path class="cls-13" d="M167.8,113.26c-.38,0-.69.31-.69.69v10.14h-23.55c-.64,0-1.24.29-1.64.78l-28.38,35.14c-.55.68-.07,1.7.81,1.7l15.02.02v26.95h44.23c8.32,0,15.07-6.75,15.07-15.07v-49.51h-10.83v-10.14c0-.38-.31-.69-.69-.69h-9.35Z"/>
    </clipPath>
    <linearGradient id="Degradado_sin_nombre_5-2" data-name="Degradado sin nombre 5" x1="113" xlink:href="#Degradado_sin_nombre_5"/>
  </defs>
  <g id="Capa_1-2" data-name="Capa 1">
    <g>
      <path class="cls-9" d="M118.01,102.42c-8.61,0-15.59,6.98-15.59,15.59v55.07c0,8.61,6.98,15.59,15.59,15.59h54.41c8.98,0,16.25-7.28,16.25-16.25v-54.41c0-8.61-6.98-15.59-15.59-15.59h-55.07Z"/>
      <g class="cls-19">
        <rect class="cls-9" x="102.42" y="102.42" width="86.25" height="86.25"/>
      </g>
    </g>
    <g class="cls-4">
      <rect class="cls-18" x="0" y="102.42" width="86.25" height="86.25"/>
    </g>
    <path class="cls-12" d="M210.41,32.88h9.52l15.57,44.4c1.16,3.38,2.4,8.63,2.4,8.63h.18s1.25-5.25,2.4-8.63l15.75-44.4h9.34l-23.14,62.82h-8.81l-23.22-62.82Z"/>
    <path class="cls-12" d="M289.6,49.61c12.72,0,19.49,9.43,19.49,21.09,0,1.16-.27,3.74-.27,3.74h-32.83c.45,9.88,7.47,14.86,15.48,14.86s13.35-5.25,13.35-5.25l3.56,6.32s-6.67,6.41-17.44,6.41c-14.15,0-23.85-10.23-23.85-23.58,0-14.33,9.7-23.58,22.51-23.58M300.28,67.94c-.27-7.74-5.07-11.48-10.86-11.48-6.58,0-11.92,4.09-13.17,11.48h24.02Z"/>
    <path class="cls-12" d="M319.59,50.68h8.36v5.96c0,1.78-.18,3.29-.18,3.29h.18c1.78-3.92,7.12-10.32,16.91-10.32,10.59,0,15.48,5.78,15.48,17.26v28.83h-8.63v-26.87c0-6.32-1.33-11.3-8.54-11.3s-12.37,4.54-14.24,11.03c-.53,1.78-.71,3.83-.71,6.05v21.09h-8.63v-45.03Z"/>
    <path class="cls-12" d="M375.12,58.24h-5.87v-6.94h6.14v-12.99h8.36v12.99h10.86v6.94h-10.86v20.02c0,8.99,6.32,10.14,9.61,10.14,1.24,0,2.05-.18,2.05-.18v7.65s-1.25.18-3.03.18c-5.78,0-17.26-1.78-17.26-16.82v-21Z"/>
    <path class="cls-12" d="M428.59,67.58h1.96v-.8c0-7.39-4.18-9.88-9.88-9.88-6.94,0-12.55,4.36-12.55,4.36l-3.56-6.32s6.5-5.34,16.82-5.34c11.39,0,17.8,6.23,17.8,17.62v28.47h-8.01v-4.27c0-2.05.18-3.56.18-3.56h-.18s-3.65,8.9-14.41,8.9c-7.74,0-15.3-4.72-15.3-13.7,0-14.86,19.58-15.48,27.14-15.48M418.63,89.83c7.3,0,12.01-7.65,12.01-14.33v-1.42h-2.22c-6.49,0-18.24.45-18.24,8.54,0,3.65,2.85,7.21,8.45,7.21"/>
    <path class="cls-12" d="M452.08,50.68h8.36v5.96c0,1.78-.18,3.29-.18,3.29h.18c1.78-3.92,7.12-10.32,16.91-10.32,10.59,0,15.48,5.78,15.48,17.26v28.83h-8.63v-26.87c0-6.32-1.33-11.3-8.54-11.3s-12.37,4.54-14.24,11.03c-.53,1.78-.71,3.83-.71,6.05v21.09h-8.63v-45.03Z"/>
    <path class="cls-12" d="M505.65,32.88h8.72v8.81h-8.72v-8.81ZM505.74,50.68h8.63v45.03h-8.63v-45.03Z"/>
    <path class="cls-12" d="M527.36,32.88h8.63v49.03c0,5.43,2.14,6.41,4.8,6.41.8,0,1.51-.09,1.51-.09v7.65s-1.33.18-2.85.18c-4.9,0-12.1-1.34-12.1-12.64v-50.54Z"/>
    <path class="cls-12" d="M550.94,32.88h8.63v49.03c0,5.43,2.14,6.41,4.8,6.41.8,0,1.51-.09,1.51-.09v7.65s-1.33.18-2.85.18c-4.9,0-12.1-1.34-12.1-12.64v-50.54Z"/>
    <path class="cls-12" d="M598.55,67.58h1.96v-.8c0-7.39-4.18-9.88-9.88-9.88-6.94,0-12.55,4.36-12.55,4.36l-3.56-6.32s6.49-5.34,16.82-5.34c11.39,0,17.8,6.23,17.8,17.62v28.47h-8.01v-4.27c0-2.05.18-3.56.18-3.56h-.18s-3.65,8.9-14.42,8.9c-7.74,0-15.3-4.72-15.3-13.7,0-14.86,19.57-15.48,27.14-15.48M588.58,89.83c7.3,0,12.01-7.65,12.01-14.33v-1.42h-2.22c-6.5,0-18.24.45-18.24,8.54,0,3.65,2.85,7.21,8.45,7.21"/>
    <path class="cls-3" d="M216.18,116.54h14.9v38.47c0,6.38,4.17,9.79,10.55,9.79s10.55-3.4,10.55-9.79v-38.47h14.9v38.47c0,13.7-10.04,23.41-25.36,23.41s-25.54-9.7-25.54-23.41v-38.47ZM242.39,99.86h14.55l-10.04,12.77h-11.41l6.89-12.77Z"/>
    <path class="cls-3" d="M278.57,133.56h14.13v3.83c0,1.45-.17,2.72-.17,2.72h.17c2.04-3.41,6.21-7.58,13.96-7.58,8.85,0,15.75,4.09,15.75,16.43v28.43h-14.72v-25.71c0-4.09-1.62-5.79-4.85-5.79-4.6,0-7.4,2.55-8.68,6.3-.6,1.7-.85,3.66-.85,5.79v19.41h-14.73v-43.84Z"/>
    <path class="cls-3" d="M332.7,133.56h14.73v43.84h-14.73v-43.84ZM332.87,116.54h14.39v11.49h-14.39v-11.49Z"/>
    <path class="cls-3" d="M379.51,132.54c11.92,0,17.45,6.64,17.45,6.64l-6.21,9.87s-4.26-4.26-10.3-4.26c-6.98,0-10.47,5.28-10.47,10.47s3.57,10.89,10.98,10.89c6.13,0,12-5.28,12-5.28l5.36,10.3s-6.55,7.23-18.81,7.23c-15.66,0-24.43-10.9-24.43-22.98s8.68-22.9,24.43-22.9"/>
    <path class="cls-3" d="M427.35,150.07h.6v-.77c0-3.66-2.81-4.85-6.47-4.85-5.53,0-11.83,4.17-11.83,4.17l-5.11-10.38s7.57-5.7,18.39-5.7c12.34,0,19.75,6.72,19.75,17.87v26.98h-13.45v-2.64c0-1.45.17-2.72.17-2.72h-.17s-3.23,6.38-12.43,6.38c-8.17,0-14.9-5.45-14.9-14.13,0-12.77,18.64-14.21,25.45-14.21M420.88,167.18c3.83,0,7.23-4.17,7.23-7.75v-.94h-1.36c-4.68,0-10.04,1.36-10.04,5.02,0,2.04,1.28,3.66,4.17,3.66"/>
    <path class="cls-3" d="M477.39,158.42s6.9,6.3,14.55,6.3c3.06,0,6.38-1.19,6.38-4.85,0-7.24-27.41-6.98-27.41-25.71,0-11.23,9.45-18.64,21.53-18.64,13.11,0,19.58,6.89,19.58,6.89l-6.3,12.17s-6.13-5.36-13.45-5.36c-3.06,0-6.47,1.36-6.47,4.77,0,7.66,27.41,6.3,27.41,25.53,0,10.13-7.75,18.9-21.45,18.9s-22.22-8.68-22.22-8.68l7.83-11.32Z"/>
    <path class="cls-3" d="M543.27,132.54c13.87,0,24.94,9.28,24.94,23.07s-11.07,22.81-24.85,22.81-24.85-9.11-24.85-22.81,11.07-23.07,24.77-23.07M543.36,166.16c5.36,0,9.96-4,9.96-10.55s-4.6-10.81-9.96-10.81-9.96,4.17-9.96,10.81,4.6,10.55,9.96,10.55"/>
    <path class="cls-3" d="M597.06,132.54c11.92,0,17.45,6.64,17.45,6.64l-6.21,9.87s-4.26-4.26-10.3-4.26c-6.98,0-10.47,5.28-10.47,10.47s3.58,10.89,10.98,10.89c6.13,0,12-5.28,12-5.28l5.36,10.3s-6.55,7.23-18.81,7.23c-15.66,0-24.43-10.9-24.43-22.98s8.68-22.9,24.43-22.9"/>
    <path class="cls-3" d="M622.77,133.56h14.72v43.84h-14.72v-43.84ZM622.94,116.54h14.39v11.49h-14.39v-11.49Z"/>
    <path class="cls-3" d="M670.52,150.07h.6v-.77c0-3.66-2.81-4.85-6.47-4.85-5.53,0-11.83,4.17-11.83,4.17l-5.11-10.38s7.57-5.7,18.39-5.7c12.34,0,19.75,6.72,19.75,17.87v26.98h-13.45v-2.64c0-1.45.17-2.72.17-2.72h-.17s-3.23,6.38-12.43,6.38c-8.17,0-14.9-5.45-14.9-14.13,0-12.77,18.64-14.21,25.45-14.21M664.05,167.18c3.83,0,7.23-4.17,7.23-7.75v-.94h-1.36c-4.68,0-10.04,1.36-10.04,5.02,0,2.04,1.28,3.66,4.17,3.66"/>
    <path class="cls-3" d="M695.46,116.54h14.72v42.73c0,4.17.77,5.62,4.09,5.62.94,0,1.79-.09,1.79-.09v12.77s-2.04.26-4.43.26c-7.83,0-16.17-1.87-16.17-16.6v-44.69Z"/>
    <rect class="cls-15" x="211.19" y="10.09" width="100.09" height="12.36"/>
    <rect class="cls-2" x="311.28" y="10.09" width="122.33" height="12.36"/>
    <g class="cls-7">
      <rect class="cls-17" width="86.25" height="86.25"/>
    </g>
    <g>
      <path class="cls-14" d="M117.75,0h55.6c8.46,0,15.32,6.87,15.32,15.32v55.6c0,8.46-6.87,15.32-15.32,15.32h-55.6c-8.46,0-15.32-6.87-15.32-15.32V15.32c0-8.46,6.87-15.32,15.32-15.32Z"/>
      <g class="cls-5">
        <rect class="cls-10" x="84.56" y="-17.86" width="121.98" height="121.98" transform="translate(12.14 115.55) rotate(-45)"/>
      </g>
    </g>
    <path class="cls-16" d="M164.48,29.59c0-10.45-8.48-18.93-18.93-18.93s-18.93,8.48-18.93,18.93,8.48,18.93,18.93,18.93,18.93-8.48,18.93-18.93"/>
    <g>
      <path class="cls-13" d="M167.8,113.26c-.38,0-.69.31-.69.69v10.14h-23.55c-.64,0-1.24.29-1.64.78l-28.38,35.14c-.55.68-.07,1.7.81,1.7l15.02.02v26.95h44.23c8.32,0,15.07-6.75,15.07-15.07v-49.51h-10.83v-10.14c0-.38-.31-.69-.69-.69h-9.35Z"/>
      <g class="cls-6">
        <rect class="cls-11" x="113" y="113.26" width="75.67" height="75.42"/>
      </g>
    </g>
    <path class="cls-8" d="M43.23,11.13l7.53,23.08s.02.02.04.02h24.36c.1,0,.14.13.06.19l-19.7,14.26s-.02.03-.01.04l7.53,23.08c.03.1-.08.18-.16.12l-19.7-14.26s-.03,0-.04,0l-19.71,14.26c-.08.06-.19-.02-.16-.12l7.53-23.08s0-.03-.01-.04l-19.7-14.26c-.08-.06-.04-.19.06-.19h24.35s.03-.01.04-.02l7.53-23.08c.03-.1.17-.1.2,0"/>
    <path class="cls-8" d="M67.12,140.54c0-5.74-4.65-10.39-10.39-10.39s-10.39,4.65-10.39,10.39,4.65,10.39,10.39,10.39,10.39-4.65,10.39-10.39"/>
    <path class="cls-8" d="M36.2,147.1c0-5.1-4.13-9.23-9.23-9.23s-9.23,4.13-9.23,9.23,4.13,9.23,9.23,9.23,9.23-4.13,9.23-9.23"/>
    <path class="cls-8" d="M46.85,113.2c-1.61,0-3.01.88-3.77,2.17-.77-1.23-2.13-2.05-3.69-2.05-2.41,0-4.36,1.95-4.36,4.36s1,4.33,3.22,6.03c1.78,1.36,3.19,2.39,4.91,4.1,1.36-1.36,3.39-3.13,4.83-4.23,2.35-1.8,3.22-3.62,3.22-6.03s-1.95-4.36-4.36-4.36"/>
    <rect class="cls-8" x="150.94" y="156.33" width="10.78" height="21.74"/>
    <path class="cls-8" d="M167.11,156.33v21.74h4.43c3.51,0,6.35-2.84,6.35-6.35v-15.39h-10.78Z"/>
    <path class="cls-8" d="M57.78,153.68h-2.35c-7.25,0-13.48,4.36-16.21,10.6,2.43,2.75,3.91,6.36,3.91,10.31v14.08h27.98c1.52,0,2.98-.23,4.36-.64v-16.66c0-9.77-7.92-17.69-17.69-17.69"/>
    <path class="cls-8" d="M57.78,153.68h-2.35c-7.25,0-13.48,4.36-16.21,10.6,2.43,2.75,3.91,6.36,3.91,10.31v14.08h27.98c1.52,0,2.98-.23,4.36-.64v-16.66c0-9.77-7.92-17.69-17.69-17.69"/>
    <path class="cls-8" d="M39.22,164.28c-2.85-3.23-7.02-5.26-11.67-5.26h-1.16c-8.6,0-15.58,6.97-15.58,15.58v13.45c1.37.41,2.82.63,4.33.63h22.59v-17.3c0-2.52.53-4.92,1.48-7.09"/>
    <path class="cls-8" d="M43.12,174.6c0-3.96-1.48-7.57-3.91-10.31-.95,2.17-1.48,4.57-1.48,7.09v17.3h5.39v-14.08Z"/>
    <path class="cls-8" d="M39.22,164.28c-2.85-3.23-7.02-5.26-11.67-5.26h-1.16c-8.6,0-15.58,6.97-15.58,15.58v13.45c1.37.41,2.82.63,4.33.63h27.98v-14.08c0-3.96-1.48-7.57-3.91-10.31"/>
    <path class="cls-16" d="M56.6,167.11c0-2.98-2.41-5.39-5.39-5.39s-5.39,2.41-5.39,5.39,2.41,5.39,5.39,5.39,5.39-2.41,5.39-5.39"/>
    <path class="cls-16" d="M51.21,175.2h0c7.44,0,13.48,6.03,13.48,13.48h-26.95c0-7.44,6.03-13.48,13.48-13.48"/>
    <path class="cls-16" d="M37.44,170.78c0-2.63-2.13-4.76-4.76-4.76s-4.76,2.13-4.76,4.76,2.13,4.76,4.76,4.76,4.76-2.13,4.76-4.76"/>
    <path class="cls-16" d="M32.34,177.87h0c5.95,0,10.78,4.83,10.78,10.78v.05h-21.56v-.05c0-5.95,4.83-10.78,10.78-10.78"/>
    <path class="cls-16" d="M146.02,53.91h-.94c-17.54,0-31.77,14.14-31.94,31.64,1.46.46,3,.71,4.61.71h55.6c1.61,0,3.16-.25,4.61-.71-.17-17.5-14.4-31.64-31.94-31.64"/>
    <path class="cls-16" d="M146.02,53.91h-.94c-17.54,0-31.77,14.14-31.94,31.64,1.46.46,3,.71,4.61.71h55.6c1.61,0,3.16-.25,4.61-.71-.17-17.5-14.4-31.64-31.94-31.64"/>
    <path class="cls-8" d="M167.11,59.1c-5.95,0-10.78,4.89-10.78,10.9v2.67c0,1.55,1.24,2.8,2.77,2.8s2.77-1.26,2.77-2.8v-2.67c0-2.92,2.35-5.29,5.23-5.29s5.23,2.37,5.23,5.29v16.25h1.01c1.58,0,3.11-.24,4.54-.68v-15.57c0-6.01-4.84-10.9-10.78-10.9"/>
    <path class="cls-8" d="M167.11,59.1c-5.95,0-10.78,4.89-10.78,10.9v2.67c0,1.55,1.24,2.8,2.77,2.8s2.77-1.26,2.77-2.8v-2.67c0-2.92,2.35-5.29,5.23-5.29s5.23,2.37,5.23,5.29v16.25h1.01c1.58,0,3.11-.24,4.54-.68v-15.57c0-6.01-4.84-10.9-10.78-10.9"/>
  </g>
</svg>